<mxfile host="Electron" modified="2024-03-14T13:13:35.432Z" agent="Mozilla/5.0 (Windows NT 10.0; Win64; x64) AppleWebKit/537.36 (KHTML, like Gecko) draw.io/24.0.4 Chrome/120.0.6099.109 Electron/28.1.0 Safari/537.36" etag="rHtvhZno0Szai6zYXXDi" version="24.0.4" type="device">
  <diagram name="ページ1" id="LE8fIzdrHe0wcv1LTvfw">
    <mxGraphModel dx="1889" dy="1116" grid="1" gridSize="10" guides="1" tooltips="1" connect="1" arrows="1" fold="1" page="1" pageScale="1" pageWidth="1600" pageHeight="1200" math="0" shadow="0">
      <root>
        <mxCell id="0" />
        <mxCell id="cFaB45KztUIKXS-_cTrr-4" value="背景" style="locked=1;" parent="0" visible="0" />
        <mxCell id="cFaB45KztUIKXS-_cTrr-5" value="" style="rounded=0;whiteSpace=wrap;html=1;strokeWidth=3;" parent="cFaB45KztUIKXS-_cTrr-4" vertex="1">
          <mxGeometry x="1" y="1" width="1595" height="1180" as="geometry" />
        </mxCell>
        <mxCell id="cFaB45KztUIKXS-_cTrr-6" value="" style="rounded=0;whiteSpace=wrap;html=1;fillColor=#B3B3B3;fontColor=#333333;strokeColor=#666666;" parent="cFaB45KztUIKXS-_cTrr-4" vertex="1">
          <mxGeometry width="1595" height="60" as="geometry" />
        </mxCell>
        <mxCell id="cFaB45KztUIKXS-_cTrr-7" value="&lt;font style=&quot;font-size: 48px;&quot;&gt;×&lt;/font&gt;" style="rounded=0;whiteSpace=wrap;html=1;" parent="cFaB45KztUIKXS-_cTrr-4" vertex="1">
          <mxGeometry x="1550" y="10" width="40" height="40" as="geometry" />
        </mxCell>
        <mxCell id="cFaB45KztUIKXS-_cTrr-8" value="" style="rounded=0;whiteSpace=wrap;html=1;" parent="cFaB45KztUIKXS-_cTrr-4" vertex="1">
          <mxGeometry x="830" y="670" width="120" height="60" as="geometry" />
        </mxCell>
        <mxCell id="cFaB45KztUIKXS-_cTrr-9" value="ウインドウ" style="locked=1;" parent="0" />
        <mxCell id="cFaB45KztUIKXS-_cTrr-10" value="" style="rounded=0;whiteSpace=wrap;html=1;strokeWidth=3;" parent="cFaB45KztUIKXS-_cTrr-9" vertex="1">
          <mxGeometry x="6" y="18" width="1545" height="1642" as="geometry" />
        </mxCell>
        <mxCell id="cFaB45KztUIKXS-_cTrr-11" value="" style="rounded=0;whiteSpace=wrap;html=1;fillColor=#B3B3B3;fontColor=#333333;strokeColor=#666666;" parent="cFaB45KztUIKXS-_cTrr-9" vertex="1">
          <mxGeometry x="11" y="18" width="1539" height="60" as="geometry" />
        </mxCell>
        <mxCell id="cFaB45KztUIKXS-_cTrr-12" value="&lt;font style=&quot;font-size: 48px;&quot;&gt;×&lt;/font&gt;" style="rounded=0;whiteSpace=wrap;html=1;" parent="cFaB45KztUIKXS-_cTrr-9" vertex="1">
          <mxGeometry x="1489" y="27" width="40" height="40" as="geometry" />
        </mxCell>
        <mxCell id="cFaB45KztUIKXS-_cTrr-14" value="名称未設定レイヤ" style="" parent="0" />
        <mxCell id="HvR4dSRWBfD3urc1JDpB-8" value="&lt;font style=&quot;font-size: 30px;&quot;&gt;登録前に下記の情報が正しいか確認をしてください&lt;/font&gt;" style="text;html=1;strokeColor=none;fillColor=none;align=left;verticalAlign=middle;whiteSpace=wrap;rounded=0;" parent="cFaB45KztUIKXS-_cTrr-14" vertex="1">
          <mxGeometry x="61" y="238" width="750" height="30" as="geometry" />
        </mxCell>
        <mxCell id="HvR4dSRWBfD3urc1JDpB-15" value="&lt;span style=&quot;font-size: 30px;&quot;&gt;送信&lt;/span&gt;" style="rounded=1;whiteSpace=wrap;html=1;" parent="cFaB45KztUIKXS-_cTrr-14" vertex="1">
          <mxGeometry x="1291" y="1558" width="210" height="60" as="geometry" />
        </mxCell>
        <mxCell id="HvR4dSRWBfD3urc1JDpB-16" value="&lt;span style=&quot;font-size: 30px;&quot;&gt;キャンセル&lt;/span&gt;" style="rounded=1;whiteSpace=wrap;html=1;" parent="cFaB45KztUIKXS-_cTrr-14" vertex="1">
          <mxGeometry x="1041" y="1558" width="210" height="60" as="geometry" />
        </mxCell>
        <mxCell id="rMlkWfYMhBXUC336Wd6b-3" value="&lt;span style=&quot;font-size: 30px;&quot;&gt;Upload&lt;/span&gt;" style="rounded=1;whiteSpace=wrap;html=1;fillColor=#FFFFFF;strokeWidth=3;" parent="cFaB45KztUIKXS-_cTrr-14" vertex="1">
          <mxGeometry x="1297" y="163" width="210" height="60" as="geometry" />
        </mxCell>
        <mxCell id="rMlkWfYMhBXUC336Wd6b-4" value="&lt;span style=&quot;font-size: 30px;&quot;&gt;議会情報を指定してください&lt;/span&gt;" style="text;html=1;strokeColor=none;fillColor=none;align=left;verticalAlign=middle;whiteSpace=wrap;rounded=0;" parent="cFaB45KztUIKXS-_cTrr-14" vertex="1">
          <mxGeometry x="31" y="108" width="600" height="40" as="geometry" />
        </mxCell>
        <mxCell id="rMlkWfYMhBXUC336Wd6b-5" value="" style="rounded=0;whiteSpace=wrap;html=1;strokeWidth=3;" parent="cFaB45KztUIKXS-_cTrr-14" vertex="1">
          <mxGeometry x="61" y="163" width="1203" height="60" as="geometry" />
        </mxCell>
        <mxCell id="rMlkWfYMhBXUC336Wd6b-7" value="&lt;span style=&quot;font-size: 30px;&quot;&gt;地方自治体コード&lt;/span&gt;" style="rounded=0;whiteSpace=wrap;html=1;align=right;dashed=1;dashPattern=8 8;verticalAlign=bottom;" parent="cFaB45KztUIKXS-_cTrr-14" vertex="1">
          <mxGeometry x="111" y="345" width="290" height="46" as="geometry" />
        </mxCell>
        <mxCell id="rMlkWfYMhBXUC336Wd6b-8" value="&lt;span style=&quot;font-size: 30px;&quot;&gt;216022&lt;/span&gt;" style="rounded=0;whiteSpace=wrap;html=1;align=left;fillColor=#CCCCCC;" parent="cFaB45KztUIKXS-_cTrr-14" vertex="1">
          <mxGeometry x="421" y="347" width="330" height="48" as="geometry" />
        </mxCell>
        <mxCell id="rMlkWfYMhBXUC336Wd6b-13" value="&lt;span style=&quot;font-size: 30px;&quot;&gt;議会事務局の住所&lt;/span&gt;" style="rounded=0;whiteSpace=wrap;html=1;align=right;dashed=1;dashPattern=8 8;verticalAlign=bottom;" parent="cFaB45KztUIKXS-_cTrr-14" vertex="1">
          <mxGeometry x="108" y="405" width="290" height="46" as="geometry" />
        </mxCell>
        <mxCell id="rMlkWfYMhBXUC336Wd6b-14" value="&lt;span style=&quot;font-size: 30px;&quot;&gt;東京都架空市架空町999番地市議会庁舎4F&lt;/span&gt;" style="rounded=0;whiteSpace=wrap;html=1;align=left;verticalAlign=top;fillColor=#CCCCCC;" parent="cFaB45KztUIKXS-_cTrr-14" vertex="1">
          <mxGeometry x="418" y="407" width="880" height="151" as="geometry" />
        </mxCell>
        <mxCell id="rMlkWfYMhBXUC336Wd6b-19" value="&lt;span style=&quot;font-size: 30px;&quot;&gt;☑議会基礎情報&lt;/span&gt;" style="rounded=0;whiteSpace=wrap;html=1;align=left;dashed=1;dashPattern=8 8;verticalAlign=bottom;fillColor=#CCCCCC;" parent="cFaB45KztUIKXS-_cTrr-14" vertex="1">
          <mxGeometry x="421" y="604" width="500" height="46" as="geometry" />
        </mxCell>
        <mxCell id="rMlkWfYMhBXUC336Wd6b-20" value="&lt;span style=&quot;font-size: 30px;&quot;&gt;議会名称&lt;/span&gt;" style="rounded=0;whiteSpace=wrap;html=1;align=right;dashed=1;dashPattern=8 8;verticalAlign=bottom;" parent="cFaB45KztUIKXS-_cTrr-14" vertex="1">
          <mxGeometry x="111" y="286" width="290" height="46" as="geometry" />
        </mxCell>
        <mxCell id="rMlkWfYMhBXUC336Wd6b-21" value="&lt;span style=&quot;font-size: 30px;&quot;&gt;架空市市議会&lt;/span&gt;" style="rounded=0;whiteSpace=wrap;html=1;align=left;fillColor=#CCCCCC;" parent="cFaB45KztUIKXS-_cTrr-14" vertex="1">
          <mxGeometry x="421" y="288" width="880" height="48" as="geometry" />
        </mxCell>
        <mxCell id="I98U6csfKiKjN-V1iLkN-1" value="&lt;span style=&quot;font-size: 30px;&quot;&gt;☑一致&lt;/span&gt;" style="rounded=0;whiteSpace=wrap;html=1;align=left;dashed=1;dashPattern=8 8;verticalAlign=bottom;" parent="cFaB45KztUIKXS-_cTrr-14" vertex="1">
          <mxGeometry x="1321" y="409" width="160" height="46" as="geometry" />
        </mxCell>
        <mxCell id="I98U6csfKiKjN-V1iLkN-2" value="&lt;span style=&quot;font-size: 30px;&quot;&gt;☑一致&lt;/span&gt;" style="rounded=0;whiteSpace=wrap;html=1;align=left;dashed=1;dashPattern=8 8;verticalAlign=bottom;" parent="cFaB45KztUIKXS-_cTrr-14" vertex="1">
          <mxGeometry x="1321" y="348" width="160" height="46" as="geometry" />
        </mxCell>
        <mxCell id="I98U6csfKiKjN-V1iLkN-3" value="&lt;span style=&quot;font-size: 30px;&quot;&gt;☑一致&lt;/span&gt;" style="rounded=0;whiteSpace=wrap;html=1;align=left;dashed=1;dashPattern=8 8;verticalAlign=bottom;" parent="cFaB45KztUIKXS-_cTrr-14" vertex="1">
          <mxGeometry x="1321" y="287" width="160" height="46" as="geometry" />
        </mxCell>
        <mxCell id="I98U6csfKiKjN-V1iLkN-4" value="&lt;span style=&quot;font-size: 30px;&quot;&gt;結びつける登録済の議会&lt;/span&gt;" style="rounded=0;whiteSpace=wrap;html=1;align=right;dashed=1;dashPattern=8 8;verticalAlign=top;" parent="cFaB45KztUIKXS-_cTrr-14" vertex="1">
          <mxGeometry x="111" y="1376" width="290" height="94" as="geometry" />
        </mxCell>
        <mxCell id="I98U6csfKiKjN-V1iLkN-5" value="&lt;span style=&quot;font-size: 30px;&quot;&gt;架空市市議会&lt;/span&gt;" style="rounded=0;whiteSpace=wrap;html=1;align=left;fillColor=#CCCCCC;" parent="cFaB45KztUIKXS-_cTrr-14" vertex="1">
          <mxGeometry x="421" y="1435" width="880" height="48" as="geometry" />
        </mxCell>
        <mxCell id="I98U6csfKiKjN-V1iLkN-6" value="&lt;span style=&quot;font-size: 30px;&quot;&gt;1111333&lt;/span&gt;" style="rounded=0;whiteSpace=wrap;html=1;align=left;fillColor=#CCCCCC;" parent="cFaB45KztUIKXS-_cTrr-14" vertex="1">
          <mxGeometry x="421" y="1378" width="360" height="48" as="geometry" />
        </mxCell>
        <mxCell id="R5iGpdARVRINriSJcsZn-0" value="&lt;span style=&quot;font-size: 30px;&quot;&gt;検索&lt;/span&gt;" style="rounded=1;whiteSpace=wrap;html=1;fillColor=#FFFFFF;strokeWidth=3;" parent="cFaB45KztUIKXS-_cTrr-14" vertex="1">
          <mxGeometry x="1088" y="1370" width="210" height="45" as="geometry" />
        </mxCell>
        <mxCell id="C2GDFJTK8cIj5DBE2Fla-1" value="&lt;span style=&quot;font-size: 30px;&quot;&gt;☑議会役職情報&lt;/span&gt;" style="rounded=0;whiteSpace=wrap;html=1;align=left;dashed=1;dashPattern=8 8;verticalAlign=bottom;fillColor=#CCCCCC;" vertex="1" parent="cFaB45KztUIKXS-_cTrr-14">
          <mxGeometry x="421" y="664" width="500" height="46" as="geometry" />
        </mxCell>
        <mxCell id="C2GDFJTK8cIj5DBE2Fla-2" value="&lt;span style=&quot;font-size: 30px;&quot;&gt;☑議会選挙区情報&lt;/span&gt;" style="rounded=0;whiteSpace=wrap;html=1;align=left;dashed=1;dashPattern=8 8;verticalAlign=bottom;fillColor=#CCCCCC;" vertex="1" parent="cFaB45KztUIKXS-_cTrr-14">
          <mxGeometry x="421" y="724" width="500" height="46" as="geometry" />
        </mxCell>
        <mxCell id="C2GDFJTK8cIj5DBE2Fla-3" value="&lt;span style=&quot;font-size: 30px;&quot;&gt;☑議会委員会情報&lt;/span&gt;" style="rounded=0;whiteSpace=wrap;html=1;align=left;dashed=1;dashPattern=8 8;verticalAlign=bottom;fillColor=#CCCCCC;" vertex="1" parent="cFaB45KztUIKXS-_cTrr-14">
          <mxGeometry x="421" y="850" width="500" height="46" as="geometry" />
        </mxCell>
        <mxCell id="C2GDFJTK8cIj5DBE2Fla-4" value="&lt;span style=&quot;font-size: 30px;&quot;&gt;掲載情報&lt;/span&gt;" style="rounded=0;whiteSpace=wrap;html=1;align=right;dashed=1;dashPattern=8 8;verticalAlign=bottom;" vertex="1" parent="cFaB45KztUIKXS-_cTrr-14">
          <mxGeometry x="108" y="602" width="290" height="46" as="geometry" />
        </mxCell>
        <mxCell id="C2GDFJTK8cIj5DBE2Fla-5" value="&lt;span style=&quot;font-size: 30px;&quot;&gt;☑議会会派情報&lt;/span&gt;" style="rounded=0;whiteSpace=wrap;html=1;align=left;dashed=1;dashPattern=8 8;verticalAlign=bottom;fillColor=#CCCCCC;" vertex="1" parent="cFaB45KztUIKXS-_cTrr-14">
          <mxGeometry x="421" y="1034" width="500" height="46" as="geometry" />
        </mxCell>
        <mxCell id="C2GDFJTK8cIj5DBE2Fla-6" value="&lt;span style=&quot;font-size: 30px;&quot;&gt;☑&lt;/span&gt;&lt;span style=&quot;font-size: 30px;&quot;&gt;首長情報&lt;/span&gt;" style="rounded=0;whiteSpace=wrap;html=1;align=left;dashed=1;dashPattern=8 8;verticalAlign=bottom;fillColor=#CCCCCC;" vertex="1" parent="cFaB45KztUIKXS-_cTrr-14">
          <mxGeometry x="421" y="1217" width="500" height="46" as="geometry" />
        </mxCell>
        <mxCell id="C2GDFJTK8cIj5DBE2Fla-7" value="&lt;span style=&quot;font-size: 30px;&quot;&gt;☑&lt;/span&gt;&lt;span style=&quot;font-size: 30px;&quot;&gt;選出議員情報&lt;/span&gt;" style="rounded=0;whiteSpace=wrap;html=1;align=left;dashed=1;dashPattern=8 8;verticalAlign=bottom;fillColor=#CCCCCC;" vertex="1" parent="cFaB45KztUIKXS-_cTrr-14">
          <mxGeometry x="421" y="1280" width="500" height="46" as="geometry" />
        </mxCell>
        <mxCell id="C2GDFJTK8cIj5DBE2Fla-8" value="&lt;span style=&quot;font-size: 30px;&quot;&gt;☑議会選出者情報&lt;/span&gt;" style="rounded=0;whiteSpace=wrap;html=1;align=left;dashed=1;dashPattern=8 8;verticalAlign=bottom;fillColor=#CCCCCC;" vertex="1" parent="cFaB45KztUIKXS-_cTrr-14">
          <mxGeometry x="509" y="788" width="500" height="46" as="geometry" />
        </mxCell>
        <mxCell id="C2GDFJTK8cIj5DBE2Fla-9" value="&lt;span style=&quot;font-size: 30px;&quot;&gt;☑議会内委員会役職者情報&lt;/span&gt;" style="rounded=0;whiteSpace=wrap;html=1;align=left;dashed=1;dashPattern=8 8;verticalAlign=bottom;fillColor=#CCCCCC;" vertex="1" parent="cFaB45KztUIKXS-_cTrr-14">
          <mxGeometry x="509" y="912" width="500" height="46" as="geometry" />
        </mxCell>
        <mxCell id="C2GDFJTK8cIj5DBE2Fla-10" value="&lt;span style=&quot;font-size: 30px;&quot;&gt;☑委員会所属者情報&lt;/span&gt;" style="rounded=0;whiteSpace=wrap;html=1;align=left;dashed=1;dashPattern=8 8;verticalAlign=bottom;fillColor=#CCCCCC;" vertex="1" parent="cFaB45KztUIKXS-_cTrr-14">
          <mxGeometry x="509" y="972" width="500" height="46" as="geometry" />
        </mxCell>
        <mxCell id="C2GDFJTK8cIj5DBE2Fla-11" value="&lt;span style=&quot;font-size: 30px;&quot;&gt;☑議会内会派役職者情報&lt;/span&gt;" style="rounded=0;whiteSpace=wrap;html=1;align=left;dashed=1;dashPattern=8 8;verticalAlign=bottom;fillColor=#CCCCCC;" vertex="1" parent="cFaB45KztUIKXS-_cTrr-14">
          <mxGeometry x="509" y="1095" width="500" height="46" as="geometry" />
        </mxCell>
        <mxCell id="C2GDFJTK8cIj5DBE2Fla-12" value="&lt;span style=&quot;font-size: 30px;&quot;&gt;☑会派所属者情報&lt;/span&gt;" style="rounded=0;whiteSpace=wrap;html=1;align=left;dashed=1;dashPattern=8 8;verticalAlign=bottom;fillColor=#CCCCCC;" vertex="1" parent="cFaB45KztUIKXS-_cTrr-14">
          <mxGeometry x="509" y="1155" width="500" height="46" as="geometry" />
        </mxCell>
      </root>
    </mxGraphModel>
  </diagram>
</mxfile>
